<?xml version="1.0" encoding="utf-8"?>
<!-- Generator: Adobe Illustrator 20.1.0, SVG Export Plug-In . SVG Version: 6.00 Build 0)  -->
<svg version="1.1" id="Layer_1" xmlns="http://www.w3.org/2000/svg" xmlns:xlink="http://www.w3.org/1999/xlink" x="0px" y="0px"
	 viewBox="0 0 200 200" style="enable-background:new 0 0 200 200;" xml:space="preserve">
<style type="text/css">
	.st0{fill:url(#SVGID_1_);}
	.st1{clip-path:url(#SVGID_3_);}
	.st2{fill:#C49A6C;}
	.st3{fill:none;stroke:#231F20;stroke-linecap:round;stroke-miterlimit:10;}
	.st4{fill:#3C2415;}
	.st5{fill:#FF3000;}
	.st6{fill:none;stroke:#DD2400;stroke-width:0.75;stroke-linecap:round;stroke-miterlimit:10;}
	.st7{opacity:0.2;}
	.st8{fill:#F9F0E4;}
	.st9{fill:none;stroke:#000000;stroke-linecap:round;stroke-miterlimit:10;}
	.st10{fill:none;stroke:#F9ED32;stroke-width:2;stroke-miterlimit:10;}
	.st11{font-family:'WorkSans-Regular';}
	.st12{font-size:23px;}
</style>
<g>
	
		<radialGradient id="SVGID_1_" cx="100.3" cy="102" r="94" gradientTransform="matrix(1 0 0 -1 0 202)" gradientUnits="userSpaceOnUse">
		<stop  offset="0.4491" style="stop-color:#F9EDBB"/>
		<stop  offset="1" style="stop-color:#F9ED53"/>
	</radialGradient>
	<circle class="st0" cx="100.3" cy="100" r="94"/>
</g>
<g>
	<g>
		<defs>
			<circle id="SVGID_2_" cx="100.3" cy="100" r="94"/>
		</defs>
		<clipPath id="SVGID_3_">
			<use xlink:href="#SVGID_2_"  style="overflow:visible;"/>
		</clipPath>
		<g class="st1">
			<g>
				<g>
					<circle class="st2" cx="115.1" cy="91.6" r="41.5"/>
					<g>
						<g>
							<path class="st3" d="M132.9,81c0,0,4,1.3,4.9-0.9"/>
							<path class="st3" d="M132.9,81.4c0,0,3.5,2.3,4.9,0.4"/>
						</g>
						<g>
							<path class="st3" d="M97.2,81c0,0-4,1.3-4.9-0.9"/>
							<path class="st3" d="M97.2,81.4c0,0-3.5,2.3-4.9,0.4"/>
						</g>
						<g>
							<ellipse class="st4" cx="99.4" cy="83.5" rx="2.8" ry="4.6"/>
							<ellipse class="st4" cx="130.6" cy="83.5" rx="2.8" ry="4.6"/>
						</g>
					</g>
					<g>
						<path class="st5" d="M104.1,111.7l6.9-3.4l3.9,1.8l3.4-1.8l7.7,3.4c0,0-3.3,7.5-11.2,7.5S104.1,111.7,104.1,111.7z"/>
						<path class="st6" d="M104.3,111.8c0,0,9.3,4.6,21.4,0"/>
					</g>
				</g>
				<g class="st7">
					<g>
						
							<image style="overflow:visible;enable-background:new    ;" width="342" height="342" xlink:href="9A60E69C27C1D7BC.png"  transform="matrix(0.2372 0 0 0.2372 48.6684 54.5388)">
						</image>
					</g>
					<g>
						
							<image style="overflow:visible;enable-background:new    ;" width="342" height="342" xlink:href="9A60E69C27C1D7C4.png"  transform="matrix(0.2372 0 0 0.2372 99.4786 54.5388)">
						</image>
					</g>
				</g>
				<g>
					<path d="M124.7,51.3c0,0-8.5,5.7-22.7,6.2C87.7,57.9,83.5,74,83,85.4s4.3,7.1,4.7,27.4s-7.6,15.6-10.9,23.7
						c-2.9,7.1-4.7,6.6-3.8,11.4c0,0-2.8-5.7-8.5-14.2c-1.9-2.9-5.7-8.5-5.7-15.1s6.2-7.6,5.7-23.7c-0.5-16.1-0.9-15.3,0.9-21.8
						c1.9-6.6,10.4-24.1,25.1-26C106.1,45,116.1,34.3,124.7,51.3z"/>
					<path d="M121.8,51.5c0,0,6.9,8,16.4,14.5s7.9,8.5,9.9,15s-9.9,27.9-3,44.4c0,0,2.5,5.5,7.4,7c0,0-0.5-7,0.5-15.5
						S170.4,90,159.4,74S134.7,40,121.8,51.5z"/>
					<path d="M123.7,55c0,0-6.4,13.7-20.3,18.9c-14,5.1-21.2,23.5-21.2,23.5s-6.8-20.5,10-38.6s31.4-6.1,31.4-6.1"/>
				</g>
			</g>
			<g>
				<g>
					<path class="st2" d="M68.1,270v-82.8c0-26.2,21.4-47.6,47.6-47.6l0,0c26.2,0,47.6,21.4,47.6,47.6V270H68.1z"/>
					<g>
						<path d="M157.7,164.6c3.6,6.7,5.7,14.4,5.7,22.5V270H68.1v-82.8c0-15.2,7.2-28.7,18.3-37.5L157.7,164.6z"/>
						<g>
							<rect x="68.1" y="248.2" class="st8" width="95.3" height="6.6"/>
							<rect x="68.1" y="263.2" class="st8" width="95.3" height="6.8"/>
							<rect x="68.1" y="218.2" class="st8" width="95.3" height="6.6"/>
							<path class="st8" d="M73.8,164.7h83.9v-0.1l-31.1-6.5H78.1C76.5,160.2,75.1,162.4,73.8,164.7z"/>
							<rect x="68.1" y="233.2" class="st8" width="95.3" height="6.6"/>
							<rect x="68.1" y="203.1" class="st8" width="95.3" height="6.6"/>
							<path class="st8" d="M70.3,173.1c-0.7,2.1-1.2,4.3-1.5,6.6h94.1c-0.4-2.3-0.9-4.5-1.5-6.6H70.3z"/>
							<rect x="68.1" y="188.1" class="st8" width="95.3" height="6.6"/>
						</g>
					</g>
				</g>
				<path class="st9" d="M157.7,164.6c3.6,6.7,5.7,14.4,5.7,22.5V270H68.1v-82.8c0-15.2,7.2-28.7,18.3-37.5L157.7,164.6z"/>
			</g>
		</g>
	</g>
</g>
<circle class="st10" cx="100.3" cy="100" r="94"/>
<text transform="matrix(1 0 0 1 21 99.5)" class="st11 st12">Hi.</text>
</svg>
